<?xml version="1.0" encoding="UTF-8"?>
<!DOCTYPE svg PUBLIC "-//W3C//DTD SVG 1.1//EN" "http://www.w3.org/Graphics/SVG/1.1/DTD/svg11.dtd">
<svg xmlns="http://www.w3.org/2000/svg" version="1.1" width="988px" height="812px" style="shape-rendering:geometricPrecision; text-rendering:geometricPrecision; image-rendering:optimizeQuality; fill-rule:evenodd; clip-rule:evenodd" xmlns:xlink="http://www.w3.org/1999/xlink">
<g><path style="opacity:0.99" fill="#575757" d="M 312.5,10.5 C 319.833,10.5 327.167,10.5 334.5,10.5C 334.5,11.5 334.5,12.5 334.5,13.5C 342.507,13.3336 350.507,13.5003 358.5,14C 363.927,16.1802 369.593,17.0135 375.5,16.5C 375.5,17.5 375.5,18.5 375.5,19.5C 379.744,20.6429 384.077,21.3096 388.5,21.5C 388.5,22.5 388.5,23.5 388.5,24.5C 391.167,24.5 393.833,24.5 396.5,24.5C 396.5,25.5 396.5,26.5 396.5,27.5C 404.056,28.5325 411.389,30.1992 418.5,32.5C 418.5,33.5 418.5,34.5 418.5,35.5C 421.308,35.6933 423.975,36.36 426.5,37.5C 426.5,38.5 426.5,39.5 426.5,40.5C 429.167,40.5 431.833,40.5 434.5,40.5C 434.5,41.5 434.5,42.5 434.5,43.5C 435.5,43.5 436.5,43.5 437.5,43.5C 437.5,44.5 437.5,45.5 437.5,46.5C 440.308,46.6933 442.975,47.36 445.5,48.5C 445.5,49.5 445.5,50.5 445.5,51.5C 446.5,51.5 447.5,51.5 448.5,51.5C 449.506,55.53 452.173,57.1967 456.5,56.5C 457.167,58.5 457.833,60.5 458.5,62.5C 461.025,63.64 463.692,64.3067 466.5,64.5C 466.5,65.5 466.5,66.5 466.5,67.5C 467.5,67.5 468.5,67.5 469.5,67.5C 469.5,68.5 469.5,69.5 469.5,70.5C 470.5,70.5 471.5,70.5 472.5,70.5C 472.5,71.5 472.5,72.5 472.5,73.5C 475.5,73.8333 477.167,75.5 477.5,78.5C 478.5,78.5 479.5,78.5 480.5,78.5C 480.5,79.5 480.5,80.5 480.5,81.5C 481.5,81.5 482.5,81.5 483.5,81.5C 483.693,84.3085 484.36,86.9752 485.5,89.5C 488.876,91.2413 492.209,92.908 495.5,94.5C 495.5,93.5 495.5,92.5 495.5,91.5C 497.5,90.8333 499.5,90.1667 501.5,89.5C 502.64,86.9752 503.307,84.3085 503.5,81.5C 504.5,81.5 505.5,81.5 506.5,81.5C 506.5,80.5 506.5,79.5 506.5,78.5C 507.5,78.5 508.5,78.5 509.5,78.5C 509.833,75.5 511.5,73.8333 514.5,73.5C 514.5,72.5 514.5,71.5 514.5,70.5C 515.5,70.5 516.5,70.5 517.5,70.5C 517.5,69.5 517.5,68.5 517.5,67.5C 518.5,67.5 519.5,67.5 520.5,67.5C 520.5,66.5 520.5,65.5 520.5,64.5C 523.308,64.3067 525.975,63.64 528.5,62.5C 529.167,60.5 529.833,58.5 530.5,56.5C 534.827,57.1967 537.494,55.53 538.5,51.5C 539.5,51.5 540.5,51.5 541.5,51.5C 541.5,50.5 541.5,49.5 541.5,48.5C 544.025,47.36 546.692,46.6933 549.5,46.5C 549.5,45.5 549.5,44.5 549.5,43.5C 550.5,43.5 551.5,43.5 552.5,43.5C 552.5,42.5 552.5,41.5 552.5,40.5C 555.167,40.5 557.833,40.5 560.5,40.5C 560.5,39.5 560.5,38.5 560.5,37.5C 563.025,36.36 565.692,35.6933 568.5,35.5C 568.5,34.5 568.5,33.5 568.5,32.5C 575.611,30.1992 582.944,28.5325 590.5,27.5C 590.5,26.5 590.5,25.5 590.5,24.5C 593.167,24.5 595.833,24.5 598.5,24.5C 598.5,23.5 598.5,22.5 598.5,21.5C 602.923,21.3096 607.256,20.6429 611.5,19.5C 611.5,18.5 611.5,17.5 611.5,16.5C 617.407,17.0135 623.073,16.1802 628.5,14C 636.493,13.5003 644.493,13.3336 652.5,13.5C 652.5,12.5 652.5,11.5 652.5,10.5C 659.833,10.5 667.167,10.5 674.5,10.5C 674.5,11.5 674.5,12.5 674.5,13.5C 682.833,13.5 691.167,13.5 699.5,13.5C 699.5,14.5 699.5,15.5 699.5,16.5C 704.833,16.5 710.167,16.5 715.5,16.5C 715.5,17.5 715.5,18.5 715.5,19.5C 719.744,20.6429 724.077,21.3096 728.5,21.5C 728.5,22.5 728.5,23.5 728.5,24.5C 731.167,24.5 733.833,24.5 736.5,24.5C 736.5,25.5 736.5,26.5 736.5,27.5C 741.222,27.8482 745.889,28.5149 750.5,29.5C 750.5,30.5 750.5,31.5 750.5,32.5C 752.167,32.5 753.833,32.5 755.5,32.5C 755.5,33.5 755.5,34.5 755.5,35.5C 759.212,35.9608 762.879,36.6275 766.5,37.5C 766.5,38.5 766.5,39.5 766.5,40.5C 768.167,40.5 769.833,40.5 771.5,40.5C 771.5,41.5 771.5,42.5 771.5,43.5C 773.5,43.5 775.5,43.5 777.5,43.5C 777.5,44.5 777.5,45.5 777.5,46.5C 780.308,46.6933 782.975,47.36 785.5,48.5C 785.5,49.5 785.5,50.5 785.5,51.5C 786.5,51.5 787.5,51.5 788.5,51.5C 788.833,54.5 790.5,56.1667 793.5,56.5C 793.5,57.5 793.5,58.5 793.5,59.5C 795.167,59.5 796.833,59.5 798.5,59.5C 798.5,60.5 798.5,61.5 798.5,62.5C 800.5,63.1667 802.5,63.8333 804.5,64.5C 804.5,65.5 804.5,66.5 804.5,67.5C 805.5,67.5 806.5,67.5 807.5,67.5C 807.5,68.5 807.5,69.5 807.5,70.5C 808.833,70.5 810.167,70.5 811.5,70.5C 811.5,71.5 811.5,72.5 811.5,73.5C 816.167,74.6201 819.167,77.6201 820.5,82.5C 821.325,83.3857 822.325,83.719 823.5,83.5C 824.167,85.5 824.833,87.5 825.5,89.5C 826.5,89.5 827.5,89.5 828.5,89.5C 829.937,91.9598 830.937,94.6265 831.5,97.5C 833.167,97.5 834.833,97.5 836.5,97.5C 836.5,99.1667 836.5,100.833 836.5,102.5C 837.5,102.5 838.5,102.5 839.5,102.5C 839.5,103.5 839.5,104.5 839.5,105.5C 840.5,105.5 841.5,105.5 842.5,105.5C 842.693,108.308 843.36,110.975 844.5,113.5C 845.5,113.5 846.5,113.5 847.5,113.5C 847.5,115.167 847.5,116.833 847.5,118.5C 848.5,118.5 849.5,118.5 850.5,118.5C 850.961,122.212 851.627,125.879 852.5,129.5C 853.5,129.5 854.5,129.5 855.5,129.5C 855.5,131.5 855.5,133.5 855.5,135.5C 856.5,135.5 857.5,135.5 858.5,135.5C 858.5,137.167 858.5,138.833 858.5,140.5C 859.5,140.5 860.5,140.5 861.5,140.5C 861.381,144.347 862.047,148.014 863.5,151.5C 864.5,151.5 865.5,151.5 866.5,151.5C 866.5,154.167 866.5,156.833 866.5,159.5C 867.5,159.5 868.5,159.5 869.5,159.5C 870.729,166.77 871.395,174.104 871.5,181.5C 872.5,181.5 873.5,181.5 874.5,181.5C 874.5,185.833 874.5,190.167 874.5,194.5C 875.5,194.5 876.5,194.5 877.5,194.5C 877.5,217.167 877.5,239.833 877.5,262.5C 876.5,262.5 875.5,262.5 874.5,262.5C 874.5,267.167 874.5,271.833 874.5,276.5C 873.5,276.5 872.5,276.5 871.5,276.5C 871.823,280.226 871.489,283.893 870.5,287.5C 869.695,293.064 868.362,298.397 866.5,303.5C 865.5,303.5 864.5,303.5 863.5,303.5C 862.982,306.887 862.149,310.221 861,313.5C 858.788,316.002 857.955,319.002 858.5,322.5C 857.5,322.5 856.5,322.5 855.5,322.5C 855.5,324.167 855.5,325.833 855.5,327.5C 854.5,327.5 853.5,327.5 852.5,327.5C 851.36,330.025 850.693,332.692 850.5,335.5C 849.5,335.5 848.5,335.5 847.5,335.5C 847.5,337.5 847.5,339.5 847.5,341.5C 846.5,341.5 845.5,341.5 844.5,341.5C 844.307,344.308 843.64,346.975 842.5,349.5C 841.5,349.5 840.5,349.5 839.5,349.5C 839.5,351.167 839.5,352.833 839.5,354.5C 838.5,354.5 837.5,354.5 836.5,354.5C 835.5,358.833 832.833,361.5 828.5,362.5C 828.5,363.5 828.5,364.5 828.5,365.5C 827.5,365.5 826.5,365.5 825.5,365.5C 825.167,368.5 823.5,370.167 820.5,370.5C 820.5,372.5 820.5,374.5 820.5,376.5C 817.5,376.833 815.833,378.5 815.5,381.5C 814.5,381.5 813.5,381.5 812.5,381.5C 812.5,382.5 812.5,383.5 812.5,384.5C 811.5,384.5 810.5,384.5 809.5,384.5C 809.167,387.5 807.5,389.167 804.5,389.5C 804.5,390.5 804.5,391.5 804.5,392.5C 803.5,392.5 802.5,392.5 801.5,392.5C 801.5,393.5 801.5,394.5 801.5,395.5C 798.5,395.833 796.833,397.5 796.5,400.5C 795.5,400.5 794.5,400.5 793.5,400.5C 793.5,401.5 793.5,402.5 793.5,403.5C 790.5,403.833 788.833,405.5 788.5,408.5C 787.5,408.5 786.5,408.5 785.5,408.5C 785.5,409.5 785.5,410.5 785.5,411.5C 784.5,411.5 783.5,411.5 782.5,411.5C 782.167,414.5 780.5,416.167 777.5,416.5C 777.5,417.5 777.5,418.5 777.5,419.5C 776.5,419.5 775.5,419.5 774.5,419.5C 774.5,420.5 774.5,421.5 774.5,422.5C 771.5,422.833 769.833,424.5 769.5,427.5C 768.5,427.5 767.5,427.5 766.5,427.5C 766.5,428.5 766.5,429.5 766.5,430.5C 763.5,430.833 761.833,432.5 761.5,435.5C 760.5,435.5 759.5,435.5 758.5,435.5C 758.5,436.5 758.5,437.5 758.5,438.5C 757.5,438.5 756.5,438.5 755.5,438.5C 755.167,441.5 753.5,443.167 750.5,443.5C 750.5,444.5 750.5,445.5 750.5,446.5C 749.5,446.5 748.5,446.5 747.5,446.5C 747.5,447.5 747.5,448.5 747.5,449.5C 744.5,449.833 742.833,451.5 742.5,454.5C 741.5,454.5 740.5,454.5 739.5,454.5C 739.5,455.5 739.5,456.5 739.5,457.5C 736.5,457.833 734.833,459.5 734.5,462.5C 733.5,462.5 732.5,462.5 731.5,462.5C 731.5,463.5 731.5,464.5 731.5,465.5C 730.5,465.5 729.5,465.5 728.5,465.5C 728.167,468.5 726.5,470.167 723.5,470.5C 723.5,471.5 723.5,472.5 723.5,473.5C 722.5,473.5 721.5,473.5 720.5,473.5C 720.5,474.5 720.5,475.5 720.5,476.5C 717.5,476.833 715.833,478.5 715.5,481.5C 714.5,481.5 713.5,481.5 712.5,481.5C 712.5,482.5 712.5,483.5 712.5,484.5C 709.5,484.833 707.833,486.5 707.5,489.5C 706.5,489.5 705.5,489.5 704.5,489.5C 704.5,490.5 704.5,491.5 704.5,492.5C 703.5,492.5 702.5,492.5 701.5,492.5C 701.167,495.5 699.5,497.167 696.5,497.5C 696.5,498.5 696.5,499.5 696.5,500.5C 695.5,500.5 694.5,500.5 693.5,500.5C 693.5,501.5 693.5,502.5 693.5,503.5C 690.5,503.833 688.833,505.5 688.5,508.5C 687.5,508.5 686.5,508.5 685.5,508.5C 685.5,509.5 685.5,510.5 685.5,511.5C 682.5,511.833 680.833,513.5 680.5,516.5C 679.5,516.5 678.5,516.5 677.5,516.5C 677.5,517.5 677.5,518.5 677.5,519.5C 676.5,519.5 675.5,519.5 674.5,519.5C 674.167,522.5 672.5,524.167 669.5,524.5C 669.5,525.5 669.5,526.5 669.5,527.5C 668.5,527.5 667.5,527.5 666.5,527.5C 666.5,528.5 666.5,529.5 666.5,530.5C 663.5,530.833 661.833,532.5 661.5,535.5C 660.5,535.5 659.5,535.5 658.5,535.5C 658.5,536.5 658.5,537.5 658.5,538.5C 655.5,538.833 653.833,540.5 653.5,543.5C 652.5,543.5 651.5,543.5 650.5,543.5C 650.5,544.5 650.5,545.5 650.5,546.5C 649.5,546.5 648.5,546.5 647.5,546.5C 647.167,549.5 645.5,551.167 642.5,551.5C 642.5,552.5 642.5,553.5 642.5,554.5C 641.5,554.5 640.5,554.5 639.5,554.5C 639.167,557.5 637.5,559.167 634.5,559.5C 634.5,560.5 634.5,561.5 634.5,562.5C 633.5,562.5 632.5,562.5 631.5,562.5C 631.5,563.5 631.5,564.5 631.5,565.5C 628.5,565.833 626.833,567.5 626.5,570.5C 625.5,570.5 624.5,570.5 623.5,570.5C 623.5,571.5 623.5,572.5 623.5,573.5C 620.5,573.833 618.833,575.5 618.5,578.5C 617.5,578.5 616.5,578.5 615.5,578.5C 615.5,579.5 615.5,580.5 615.5,581.5C 614.5,581.5 613.5,581.5 612.5,581.5C 612.167,584.5 610.5,586.167 607.5,586.5C 607.5,587.5 607.5,588.5 607.5,589.5C 606.5,589.5 605.5,589.5 604.5,589.5C 604.5,590.5 604.5,591.5 604.5,592.5C 601.5,592.833 599.833,594.5 599.5,597.5C 598.5,597.5 597.5,597.5 596.5,597.5C 596.5,598.5 596.5,599.5 596.5,600.5C 593.5,600.833 591.833,602.5 591.5,605.5C 590.5,605.5 589.5,605.5 588.5,605.5C 588.5,606.5 588.5,607.5 588.5,608.5C 587.5,608.5 586.5,608.5 585.5,608.5C 585.167,611.5 583.5,613.167 580.5,613.5C 580.5,614.5 580.5,615.5 580.5,616.5C 579.5,616.5 578.5,616.5 577.5,616.5C 577.5,617.5 577.5,618.5 577.5,619.5C 574.5,619.833 572.833,621.5 572.5,624.5C 571.5,624.5 570.5,624.5 569.5,624.5C 569.5,625.5 569.5,626.5 569.5,627.5C 566.5,627.833 564.833,629.5 564.5,632.5C 563.5,632.5 562.5,632.5 561.5,632.5C 561.5,633.5 561.5,634.5 561.5,635.5C 560.5,635.5 559.5,635.5 558.5,635.5C 558.167,638.5 556.5,640.167 553.5,640.5C 553.5,641.5 553.5,642.5 553.5,643.5C 552.5,643.5 551.5,643.5 550.5,643.5C 550.5,644.5 550.5,645.5 550.5,646.5C 547.5,646.833 545.833,648.5 545.5,651.5C 544.5,651.5 543.5,651.5 542.5,651.5C 542.5,652.5 542.5,653.5 542.5,654.5C 539.5,654.833 537.833,656.5 537.5,659.5C 536.5,659.5 535.5,659.5 534.5,659.5C 534.5,661.167 534.5,662.833 534.5,664.5C 533.5,664.5 532.5,664.5 531.5,664.5C 531.5,665.5 531.5,666.5 531.5,667.5C 530.5,667.5 529.5,667.5 528.5,667.5C 527.743,671.919 525.077,674.252 520.5,674.5C 519.147,675.524 518.48,676.857 518.5,678.5C 517.5,678.5 516.5,678.5 515.5,678.5C 515.5,679.5 515.5,680.5 515.5,681.5C 512.5,681.833 510.833,683.5 510.5,686.5C 509.5,686.5 508.5,686.5 507.5,686.5C 507.5,687.5 507.5,688.5 507.5,689.5C 506.5,689.5 505.5,689.5 504.5,689.5C 504.785,691.288 504.452,692.955 503.5,694.5C 501.497,696.133 500.164,698.133 499.5,700.5C 497.535,701.129 495.535,701.796 493.5,702.5C 491.465,701.796 489.465,701.129 487.5,700.5C 486.836,698.133 485.503,696.133 483.5,694.5C 482.548,692.955 482.215,691.288 482.5,689.5C 481.5,689.5 480.5,689.5 479.5,689.5C 479.5,688.5 479.5,687.5 479.5,686.5C 478.5,686.5 477.5,686.5 476.5,686.5C 476.167,683.5 474.5,681.833 471.5,681.5C 471.5,680.5 471.5,679.5 471.5,678.5C 470.5,678.5 469.5,678.5 468.5,678.5C 468.52,676.857 467.853,675.524 466.5,674.5C 461.923,674.252 459.257,671.919 458.5,667.5C 453.869,666.842 451.869,664.175 452.5,659.5C 451.5,659.5 450.5,659.5 449.5,659.5C 449.167,656.5 447.5,654.833 444.5,654.5C 444.5,653.5 444.5,652.5 444.5,651.5C 443.5,651.5 442.5,651.5 441.5,651.5C 441.167,648.5 439.5,646.833 436.5,646.5C 436.5,645.5 436.5,644.5 436.5,643.5C 435.5,643.5 434.5,643.5 433.5,643.5C 433.5,642.5 433.5,641.5 433.5,640.5C 432.5,640.5 431.5,640.5 430.5,640.5C 430.986,637.289 431.986,634.289 433.5,631.5C 434.5,631.5 435.5,631.5 436.5,631.5C 436.5,628.833 436.5,626.167 436.5,623.5C 437.5,623.5 438.5,623.5 439.5,623.5C 440.643,619.256 441.31,614.923 441.5,610.5C 442.5,610.5 443.5,610.5 444.5,610.5C 444.5,607.833 444.5,605.167 444.5,602.5C 445.5,602.5 446.5,602.5 447.5,602.5C 447.605,595.104 448.271,587.77 449.5,580.5C 455.833,580.5 462.167,580.5 468.5,580.5C 468.5,579.5 468.5,578.5 468.5,577.5C 474.879,577.188 481.212,576.521 487.5,575.5C 487.5,574.5 487.5,573.5 487.5,572.5C 490.167,572.5 492.833,572.5 495.5,572.5C 495.5,571.5 495.5,570.5 495.5,569.5C 498.025,568.36 500.692,567.693 503.5,567.5C 503.5,566.5 503.5,565.5 503.5,564.5C 504.5,564.5 505.5,564.5 506.5,564.5C 506.5,563.5 506.5,562.5 506.5,561.5C 507.5,561.5 508.5,561.5 509.5,561.5C 509.833,558.5 511.5,556.833 514.5,556.5C 514.5,555.5 514.5,554.5 514.5,553.5C 516.5,552.833 518.5,552.167 520.5,551.5C 520.5,550.5 520.5,549.5 520.5,548.5C 522.167,548.5 523.833,548.5 525.5,548.5C 525.5,547.5 525.5,546.5 525.5,545.5C 526.5,545.5 527.5,545.5 528.5,545.5C 528.693,542.692 529.36,540.025 530.5,537.5C 531.5,537.5 532.5,537.5 533.5,537.5C 533.5,534.833 533.5,532.167 533.5,529.5C 534.5,529.5 535.5,529.5 536.5,529.5C 536.961,525.788 537.627,522.121 538.5,518.5C 539.5,518.5 540.5,518.5 541.5,518.5C 541.5,514.833 541.5,511.167 541.5,507.5C 542.5,507.5 543.5,507.5 544.5,507.5C 544.5,495.167 544.5,482.833 544.5,470.5C 543.5,470.5 542.5,470.5 541.5,470.5C 541.5,466.833 541.5,463.167 541.5,459.5C 540.5,459.5 539.5,459.5 538.5,459.5C 538.31,455.077 537.643,450.744 536.5,446.5C 535.5,446.5 534.5,446.5 533.5,446.5C 533.5,445.5 533.5,444.5 533.5,443.5C 532.5,443.5 531.5,443.5 530.5,443.5C 529.627,439.879 528.961,436.212 528.5,432.5C 526.5,431.833 524.5,431.167 522.5,430.5C 521.833,428.5 521.167,426.5 520.5,424.5C 519.5,424.5 518.5,424.5 517.5,424.5C 517.5,423.5 517.5,422.5 517.5,421.5C 528.573,421.266 539.573,421.933 550.5,423.5C 550.5,424.5 550.5,425.5 550.5,426.5C 551.5,426.5 552.5,426.5 553.5,426.5C 553.5,427.5 553.5,428.5 553.5,429.5C 554.5,429.5 555.5,429.5 556.5,429.5C 557.64,432.025 558.307,434.692 558.5,437.5C 559.5,437.5 560.5,437.5 561.5,437.5C 561.5,465.5 561.5,493.5 561.5,521.5C 564.5,521.833 566.167,523.5 566.5,526.5C 587.833,526.5 609.167,526.5 630.5,526.5C 630.5,525.5 630.5,524.5 630.5,523.5C 632.5,523.5 634.5,523.5 636.5,523.5C 639.042,487.188 639.042,450.854 636.5,414.5C 635.5,414.5 634.5,414.5 633.5,414.5C 633.5,410.833 633.5,407.167 633.5,403.5C 632.5,403.5 631.5,403.5 630.5,403.5C 630.039,399.788 629.373,396.121 628.5,392.5C 627.5,392.5 626.5,392.5 625.5,392.5C 625.5,390.833 625.5,389.167 625.5,387.5C 624.5,387.5 623.5,387.5 622.5,387.5C 622.5,386.5 622.5,385.5 622.5,384.5C 621.5,384.5 620.5,384.5 619.5,384.5C 618.764,379.997 616.098,377.33 611.5,376.5C 612.197,372.173 610.53,369.506 606.5,368.5C 606.5,367.5 606.5,366.5 606.5,365.5C 604.833,365.5 603.167,365.5 601.5,365.5C 601.5,364.5 601.5,363.5 601.5,362.5C 599.5,361.833 597.5,361.167 595.5,360.5C 595.5,359.5 595.5,358.5 595.5,357.5C 593.833,357.5 592.167,357.5 590.5,357.5C 590.5,356.5 590.5,355.5 590.5,354.5C 587.833,354.5 585.167,354.5 582.5,354.5C 582.5,353.5 582.5,352.5 582.5,351.5C 577.889,350.515 573.222,349.848 568.5,349.5C 568.5,348.5 568.5,347.5 568.5,346.5C 564.833,346.5 561.167,346.5 557.5,346.5C 558.126,310.384 557.46,274.384 555.5,238.5C 554.5,238.5 553.5,238.5 552.5,238.5C 552.5,236.833 552.5,235.167 552.5,233.5C 551.5,233.5 550.5,233.5 549.5,233.5C 548.36,230.975 547.693,228.308 547.5,225.5C 545.801,225.66 544.134,225.494 542.5,225C 541.692,223.294 540.359,222.461 538.5,222.5C 538.264,220.027 536.931,218.36 534.5,217.5C 537.009,213.893 538.343,209.893 538.5,205.5C 539.5,205.5 540.5,205.5 541.5,205.5C 541.5,203.5 541.5,201.5 541.5,199.5C 542.5,199.5 543.5,199.5 544.5,199.5C 544.5,190.167 544.5,180.833 544.5,171.5C 543.5,171.5 542.5,171.5 541.5,171.5C 541.5,168.5 541.5,165.5 541.5,162.5C 540.5,162.5 539.5,162.5 538.5,162.5C 538.307,159.692 537.64,157.025 536.5,154.5C 534.5,153.833 532.5,153.167 530.5,152.5C 529.36,149.975 528.693,147.308 528.5,144.5C 524.702,143.846 521.036,142.846 517.5,141.5C 517.5,140.5 517.5,139.5 517.5,138.5C 515.5,138.5 513.5,138.5 511.5,138.5C 511.5,137.5 511.5,136.5 511.5,135.5C 505.535,134.703 499.535,134.037 493.5,133.5C 487.465,134.037 481.465,134.703 475.5,135.5C 475.5,136.5 475.5,137.5 475.5,138.5C 473.5,138.5 471.5,138.5 469.5,138.5C 469.5,139.5 469.5,140.5 469.5,141.5C 467.833,141.5 466.167,141.5 464.5,141.5C 464.5,142.5 464.5,143.5 464.5,144.5C 462.5,144.5 460.5,144.5 458.5,144.5C 458.307,147.308 457.64,149.975 456.5,152.5C 454.5,153.167 452.5,153.833 450.5,154.5C 449.36,157.025 448.693,159.692 448.5,162.5C 447.5,162.5 446.5,162.5 445.5,162.5C 445.5,165.5 445.5,168.5 445.5,171.5C 444.5,171.5 443.5,171.5 442.5,171.5C 442.5,180.833 442.5,190.167 442.5,199.5C 443.5,199.5 444.5,199.5 445.5,199.5C 445.5,201.5 445.5,203.5 445.5,205.5C 446.5,205.5 447.5,205.5 448.5,205.5C 447.991,210.139 449.325,214.139 452.5,217.5C 450.069,218.36 448.736,220.027 448.5,222.5C 445.711,224.014 442.711,225.014 439.5,225.5C 439.307,228.308 438.64,230.975 437.5,233.5C 436.5,233.5 435.5,233.5 434.5,233.5C 434.5,235.167 434.5,236.833 434.5,238.5C 399.5,238.5 364.5,238.5 329.5,238.5C 329.5,239.5 329.5,240.5 329.5,241.5C 327.5,242.167 325.5,242.833 323.5,243.5C 323.5,265.833 323.5,288.167 323.5,310.5C 324.5,310.5 325.5,310.5 326.5,310.5C 326.5,311.5 326.5,312.5 326.5,313.5C 342.612,315.09 358.778,316.09 375,316.5C 375.5,349.165 375.667,381.832 375.5,414.5C 372.5,414.5 369.5,414.5 366.5,414.5C 366.5,413.5 366.5,412.5 366.5,411.5C 364.5,411.5 362.5,411.5 360.5,411.5C 360.5,410.5 360.5,409.5 360.5,408.5C 358.833,408.5 357.167,408.5 355.5,408.5C 355.5,407.5 355.5,406.5 355.5,405.5C 351.348,403.938 347.015,403.272 342.5,403.5C 342.5,402.5 342.5,401.5 342.5,400.5C 338.818,400.665 335.152,400.499 331.5,400C 330.692,399.692 330.025,399.192 329.5,398.5C 315.182,397.501 300.849,397.167 286.5,397.5C 286.5,398.5 286.5,399.5 286.5,400.5C 281.833,400.5 277.167,400.5 272.5,400.5C 272.5,401.5 272.5,402.5 272.5,403.5C 268.653,403.381 264.986,404.047 261.5,405.5C 261.5,406.5 261.5,407.5 261.5,408.5C 258.833,408.5 256.167,408.5 253.5,408.5C 253.5,409.5 253.5,410.5 253.5,411.5C 251.833,411.5 250.167,411.5 248.5,411.5C 248.5,412.5 248.5,413.5 248.5,414.5C 244.788,414.961 241.121,415.627 237.5,416.5C 237.5,417.5 237.5,418.5 237.5,419.5C 236.5,419.5 235.5,419.5 234.5,419.5C 234.5,420.5 234.5,421.5 234.5,422.5C 231.692,422.693 229.025,423.36 226.5,424.5C 226.5,425.5 226.5,426.5 226.5,427.5C 223.5,427.5 220.5,427.5 217.5,427.5C 217.167,424.5 215.5,422.833 212.5,422.5C 212.5,421.5 212.5,420.5 212.5,419.5C 211.5,419.5 210.5,419.5 209.5,419.5C 209.5,418.5 209.5,417.5 209.5,416.5C 206.5,416.167 204.833,414.5 204.5,411.5C 203.5,411.5 202.5,411.5 201.5,411.5C 201.5,410.5 201.5,409.5 201.5,408.5C 200.5,408.5 199.5,408.5 198.5,408.5C 198.167,405.5 196.5,403.833 193.5,403.5C 193.5,402.5 193.5,401.5 193.5,400.5C 192.5,400.5 191.5,400.5 190.5,400.5C 190.167,397.5 188.5,395.833 185.5,395.5C 185.5,394.5 185.5,393.5 185.5,392.5C 184.5,392.5 183.5,392.5 182.5,392.5C 182.5,391.5 182.5,390.5 182.5,389.5C 179.5,389.167 177.833,387.5 177.5,384.5C 176.5,384.5 175.5,384.5 174.5,384.5C 174.5,383.5 174.5,382.5 174.5,381.5C 173.5,381.5 172.5,381.5 171.5,381.5C 171.167,378.5 169.5,376.833 166.5,376.5C 166.5,374.5 166.5,372.5 166.5,370.5C 163.5,370.167 161.833,368.5 161.5,365.5C 160.5,365.5 159.5,365.5 158.5,365.5C 158.5,364.5 158.5,363.5 158.5,362.5C 154.167,361.5 151.5,358.833 150.5,354.5C 149.5,354.5 148.5,354.5 147.5,354.5C 147.5,352.833 147.5,351.167 147.5,349.5C 146.5,349.5 145.5,349.5 144.5,349.5C 143.36,346.975 142.693,344.308 142.5,341.5C 141.5,341.5 140.5,341.5 139.5,341.5C 139.5,339.5 139.5,337.5 139.5,335.5C 138.5,335.5 137.5,335.5 136.5,335.5C 136.307,332.692 135.64,330.025 134.5,327.5C 133.5,327.5 132.5,327.5 131.5,327.5C 131.5,325.833 131.5,324.167 131.5,322.5C 130.5,322.5 129.5,322.5 128.5,322.5C 128.5,319.833 128.5,317.167 128.5,314.5C 127.5,314.5 126.5,314.5 125.5,314.5C 125.039,310.788 124.373,307.121 123.5,303.5C 122.5,303.5 121.5,303.5 120.5,303.5C 118.638,298.397 117.305,293.064 116.5,287.5C 115.511,283.893 115.177,280.226 115.5,276.5C 114.5,276.5 113.5,276.5 112.5,276.5C 112.5,271.833 112.5,267.167 112.5,262.5C 111.5,262.5 110.5,262.5 109.5,262.5C 109.5,239.833 109.5,217.167 109.5,194.5C 110.5,194.5 111.5,194.5 112.5,194.5C 112.5,190.167 112.5,185.833 112.5,181.5C 113.5,181.5 114.5,181.5 115.5,181.5C 115.605,174.104 116.271,166.77 117.5,159.5C 118.5,159.5 119.5,159.5 120.5,159.5C 120.5,156.833 120.5,154.167 120.5,151.5C 121.5,151.5 122.5,151.5 123.5,151.5C 124.953,148.014 125.619,144.347 125.5,140.5C 126.5,140.5 127.5,140.5 128.5,140.5C 128.5,138.833 128.5,137.167 128.5,135.5C 129.5,135.5 130.5,135.5 131.5,135.5C 131.5,133.5 131.5,131.5 131.5,129.5C 132.5,129.5 133.5,129.5 134.5,129.5C 135.373,125.879 136.039,122.212 136.5,118.5C 137.5,118.5 138.5,118.5 139.5,118.5C 139.5,116.833 139.5,115.167 139.5,113.5C 140.5,113.5 141.5,113.5 142.5,113.5C 143.64,110.975 144.307,108.308 144.5,105.5C 145.5,105.5 146.5,105.5 147.5,105.5C 147.5,104.5 147.5,103.5 147.5,102.5C 148.5,102.5 149.5,102.5 150.5,102.5C 150.5,100.833 150.5,99.1667 150.5,97.5C 152.167,97.5 153.833,97.5 155.5,97.5C 155.5,95.8333 155.5,94.1667 155.5,92.5C 156.5,92.5 157.5,92.5 158.5,92.5C 158.5,91.5 158.5,90.5 158.5,89.5C 159.5,89.5 160.5,89.5 161.5,89.5C 162.167,87.5 162.833,85.5 163.5,83.5C 164.675,83.719 165.675,83.3857 166.5,82.5C 167.833,78.1365 170.5,75.1365 174.5,73.5C 174.5,72.5 174.5,71.5 174.5,70.5C 176.167,70.5 177.833,70.5 179.5,70.5C 179.5,69.5 179.5,68.5 179.5,67.5C 180.5,67.5 181.5,67.5 182.5,67.5C 182.5,66.5 182.5,65.5 182.5,64.5C 184.5,63.8333 186.5,63.1667 188.5,62.5C 188.5,61.5 188.5,60.5 188.5,59.5C 190.167,59.5 191.833,59.5 193.5,59.5C 193.5,58.5 193.5,57.5 193.5,56.5C 196.5,56.1667 198.167,54.5 198.5,51.5C 199.5,51.5 200.5,51.5 201.5,51.5C 201.5,50.5 201.5,49.5 201.5,48.5C 204.025,47.36 206.692,46.6933 209.5,46.5C 209.5,45.5 209.5,44.5 209.5,43.5C 211.5,43.5 213.5,43.5 215.5,43.5C 215.5,42.5 215.5,41.5 215.5,40.5C 217.167,40.5 218.833,40.5 220.5,40.5C 220.5,39.5 220.5,38.5 220.5,37.5C 224.121,36.6275 227.788,35.9608 231.5,35.5C 231.5,34.5 231.5,33.5 231.5,32.5C 233.167,32.5 234.833,32.5 236.5,32.5C 236.5,31.5 236.5,30.5 236.5,29.5C 241.111,28.5149 245.778,27.8482 250.5,27.5C 250.5,26.5 250.5,25.5 250.5,24.5C 253.167,24.5 255.833,24.5 258.5,24.5C 258.5,23.5 258.5,22.5 258.5,21.5C 262.923,21.3096 267.256,20.6429 271.5,19.5C 271.5,18.5 271.5,17.5 271.5,16.5C 276.833,16.5 282.167,16.5 287.5,16.5C 287.5,15.5 287.5,14.5 287.5,13.5C 295.833,13.5 304.167,13.5 312.5,13.5C 312.5,12.5 312.5,11.5 312.5,10.5 Z"/></g>
<g><path style="opacity:0.942" fill="#575757" d="M 490.5,156.5 C 495.939,158.26 501.606,159.26 507.5,159.5C 507.5,160.5 507.5,161.5 507.5,162.5C 510.5,162.833 512.167,164.5 512.5,167.5C 513.5,167.5 514.5,167.5 515.5,167.5C 515.5,168.5 515.5,169.5 515.5,170.5C 516.5,170.5 517.5,170.5 518.5,170.5C 519.434,174.928 520.1,179.428 520.5,184C 519.87,189.525 519.203,195.025 518.5,200.5C 517.5,200.5 516.5,200.5 515.5,200.5C 515.5,201.5 515.5,202.5 515.5,203.5C 514.5,203.5 513.5,203.5 512.5,203.5C 511.494,207.53 508.827,209.197 504.5,208.5C 504.5,209.5 504.5,210.5 504.5,211.5C 502.833,211.5 501.167,211.5 499.5,211.5C 499.5,212.5 499.5,213.5 499.5,214.5C 495.5,214.5 491.5,214.5 487.5,214.5C 487.5,213.5 487.5,212.5 487.5,211.5C 485.833,211.5 484.167,211.5 482.5,211.5C 482.5,210.5 482.5,209.5 482.5,208.5C 478.173,209.197 475.506,207.53 474.5,203.5C 473.5,203.5 472.5,203.5 471.5,203.5C 471.5,202.5 471.5,201.5 471.5,200.5C 470.5,200.5 469.5,200.5 468.5,200.5C 467.797,195.025 467.13,189.525 466.5,184C 466.9,179.428 467.566,174.928 468.5,170.5C 469.5,170.5 470.5,170.5 471.5,170.5C 471.5,169.5 471.5,168.5 471.5,167.5C 472.5,167.5 473.5,167.5 474.5,167.5C 474.833,164.5 476.5,162.833 479.5,162.5C 479.5,161.5 479.5,160.5 479.5,159.5C 483.75,160.081 487.416,159.081 490.5,156.5 Z"/></g>
<g><path style="opacity:0.973" fill="#575757" d="M 460.5,237.5 C 482.5,237.5 504.5,237.5 526.5,237.5C 526.5,238.5 526.5,239.5 526.5,240.5C 527.5,240.5 528.5,240.5 529.5,240.5C 530.64,243.025 531.307,245.692 531.5,248.5C 532.5,248.5 533.5,248.5 534.5,248.5C 534.5,286.167 534.5,323.833 534.5,361.5C 535.5,361.5 536.5,361.5 537.5,361.5C 538.167,363.5 538.833,365.5 539.5,367.5C 548.463,368.578 557.463,369.245 566.5,369.5C 566.5,370.5 566.5,371.5 566.5,372.5C 570.298,373.154 573.964,374.154 577.5,375.5C 577.5,376.5 577.5,377.5 577.5,378.5C 579.604,378.201 581.604,378.534 583.5,379.5C 586.457,380.507 589.124,381.841 591.5,383.5C 591.833,386.5 593.5,388.167 596.5,388.5C 596.5,389.5 596.5,390.5 596.5,391.5C 597.5,391.5 598.5,391.5 599.5,391.5C 600.64,394.025 601.307,396.692 601.5,399.5C 602.5,399.5 603.5,399.5 604.5,399.5C 604.5,401.5 604.5,403.5 604.5,405.5C 605.5,405.5 606.5,405.5 607.5,405.5C 607.5,407.167 607.5,408.833 607.5,410.5C 608.5,410.5 609.5,410.5 610.5,410.5C 612.373,441.443 613.04,472.443 612.5,503.5C 603.249,503.818 594.083,503.485 585,502.5C 584.936,477.455 584.103,452.455 582.5,427.5C 581.5,427.5 580.5,427.5 579.5,427.5C 579.5,425.833 579.5,424.167 579.5,422.5C 578.5,422.5 577.5,422.5 576.5,422.5C 575.833,419.833 575.167,417.167 574.5,414.5C 573.5,414.5 572.5,414.5 571.5,414.5C 571.5,413.5 571.5,412.5 571.5,411.5C 570.5,411.5 569.5,411.5 568.5,411.5C 568.5,410.5 568.5,409.5 568.5,408.5C 566.833,408.5 565.167,408.5 563.5,408.5C 563.5,406.833 563.5,405.167 563.5,403.5C 561.5,403.5 559.5,403.5 557.5,403.5C 557.5,402.5 557.5,401.5 557.5,400.5C 554.833,400.5 552.167,400.5 549.5,400.5C 549.5,399.5 549.5,398.5 549.5,397.5C 517.167,397.5 484.833,397.5 452.5,397.5C 452.5,347.833 452.5,298.167 452.5,248.5C 453.5,248.5 454.5,248.5 455.5,248.5C 455.693,245.692 456.36,243.025 457.5,240.5C 458.5,240.5 459.5,240.5 460.5,240.5C 460.5,239.5 460.5,238.5 460.5,237.5 Z"/></g>
<g><path style="opacity:0.924" fill="#575757" d="M 347.5,261.5 C 374.741,261.172 401.907,261.505 429,262.5C 429.5,308.499 429.667,354.499 429.5,400.5C 424.966,402.413 420.299,404.08 415.5,405.5C 415.5,406.5 415.5,407.5 415.5,408.5C 413.833,408.5 412.167,408.5 410.5,408.5C 410.5,409.5 410.5,410.5 410.5,411.5C 408.5,411.5 406.5,411.5 404.5,411.5C 404.5,412.5 404.5,413.5 404.5,414.5C 402.5,414.5 400.5,414.5 398.5,414.5C 398.5,375.5 398.5,336.5 398.5,297.5C 395.5,297.167 393.833,295.5 393.5,292.5C 378.167,292.5 362.833,292.5 347.5,292.5C 347.5,282.167 347.5,271.833 347.5,261.5 Z"/></g>
<g><path style="opacity:0.978" fill="#575757" d="M 293.5,421.5 C 308.207,421.458 322.874,422.125 337.5,423.5C 337.5,424.5 337.5,425.5 337.5,426.5C 340.167,426.5 342.833,426.5 345.5,426.5C 345.5,427.5 345.5,428.5 345.5,429.5C 348.167,429.5 350.833,429.5 353.5,429.5C 353.5,430.5 353.5,431.5 353.5,432.5C 356.308,432.693 358.975,433.36 361.5,434.5C 361.5,435.5 361.5,436.5 361.5,437.5C 363.5,437.5 365.5,437.5 367.5,437.5C 367.5,438.5 367.5,439.5 367.5,440.5C 370.308,440.693 372.975,441.36 375.5,442.5C 376.167,444.5 376.833,446.5 377.5,448.5C 381.827,447.803 384.494,449.47 385.5,453.5C 386.5,453.5 387.5,453.5 388.5,453.5C 388.5,454.5 388.5,455.5 388.5,456.5C 389.5,456.5 390.5,456.5 391.5,456.5C 391.5,457.5 391.5,458.5 391.5,459.5C 395.53,460.506 397.197,463.173 396.5,467.5C 398.5,468.167 400.5,468.833 402.5,469.5C 403.64,472.025 404.307,474.692 404.5,477.5C 405.5,477.5 406.5,477.5 407.5,477.5C 407.5,478.5 407.5,479.5 407.5,480.5C 408.5,480.5 409.5,480.5 410.5,480.5C 410.961,484.212 411.627,487.879 412.5,491.5C 413.5,491.5 414.5,491.5 415.5,491.5C 415.5,493.167 415.5,494.833 415.5,496.5C 416.5,496.5 417.5,496.5 418.5,496.5C 420.907,505.173 422.573,514.173 423.5,523.5C 424.5,523.5 425.5,523.5 426.5,523.5C 426.5,531.833 426.5,540.167 426.5,548.5C 427.5,548.5 428.5,548.5 429.5,548.5C 429.5,553.167 429.5,557.833 429.5,562.5C 428.5,562.5 427.5,562.5 426.5,562.5C 426.5,569.833 426.5,577.167 426.5,584.5C 425.5,584.5 424.5,584.5 423.5,584.5C 422.715,591.486 422.048,598.486 421.5,605.5C 420.5,605.5 419.5,605.5 418.5,605.5C 417.249,610.03 416.249,614.696 415.5,619.5C 414.5,619.5 413.5,619.5 412.5,619.5C 412.307,622.308 411.64,624.975 410.5,627.5C 409.5,627.5 408.5,627.5 407.5,627.5C 407.581,631.673 406.248,635.339 403.5,638.5C 402.476,639.853 401.143,640.52 399.5,640.5C 399.5,641.5 399.5,642.5 399.5,643.5C 398.5,643.5 397.5,643.5 396.5,643.5C 396.167,646.5 394.5,648.167 391.5,648.5C 391.5,649.5 391.5,650.5 391.5,651.5C 390.5,651.5 389.5,651.5 388.5,651.5C 388.5,652.5 388.5,653.5 388.5,654.5C 385.5,654.833 383.833,656.5 383.5,659.5C 382.5,659.5 381.5,659.5 380.5,659.5C 379.671,663.93 377.004,666.596 372.5,667.5C 372.5,668.5 372.5,669.5 372.5,670.5C 368.964,671.846 365.298,672.846 361.5,673.5C 361.5,686.5 361.5,699.5 361.5,712.5C 367.833,712.5 374.167,712.5 380.5,712.5C 380.5,713.5 380.5,714.5 380.5,715.5C 388.5,715.5 396.5,715.5 404.5,715.5C 404.5,716.5 404.5,717.5 404.5,718.5C 421.509,719.052 438.509,719.885 455.5,721C 458.002,723.212 461.002,724.045 464.5,723.5C 464.5,724.5 464.5,725.5 464.5,726.5C 468.923,726.69 473.256,727.357 477.5,728.5C 477.5,729.5 477.5,730.5 477.5,731.5C 479.5,731.5 481.5,731.5 483.5,731.5C 484.167,733.5 484.833,735.5 485.5,737.5C 487.5,738.167 489.5,738.833 491.5,739.5C 492.167,741.5 492.833,743.5 493.5,745.5C 494.5,745.5 495.5,745.5 496.5,745.5C 496.5,747.167 496.5,748.833 496.5,750.5C 497.5,750.5 498.5,750.5 499.5,750.5C 501.732,756.513 503.399,762.846 504.5,769.5C 505.5,769.5 506.5,769.5 507.5,769.5C 507.151,772.045 507.984,774.045 510,775.5C 511.445,780.748 512.278,786.082 512.5,791.5C 513.5,791.5 514.5,791.5 515.5,791.5C 515.5,793.167 515.5,794.833 515.5,796.5C 516.5,796.5 517.5,796.5 518.5,796.5C 519.525,800.427 520.192,804.427 520.5,808.5C 379.167,808.5 237.833,808.5 96.5,808.5C 97.418,801.473 99.0847,794.807 101.5,788.5C 102.5,788.5 103.5,788.5 104.5,788.5C 104.5,785.833 104.5,783.167 104.5,780.5C 105.5,780.5 106.5,780.5 107.5,780.5C 108.347,776.201 109.013,771.867 109.5,767.5C 110.5,767.5 111.5,767.5 112.5,767.5C 112.5,765.5 112.5,763.5 112.5,761.5C 113.5,761.5 114.5,761.5 115.5,761.5C 115.848,756.778 116.515,752.111 117.5,747.5C 119.5,746.833 121.5,746.167 123.5,745.5C 124.5,741.167 127.167,738.5 131.5,737.5C 131.5,736.5 131.5,735.5 131.5,734.5C 132.5,734.5 133.5,734.5 134.5,734.5C 134.5,733.5 134.5,732.5 134.5,731.5C 137.126,730.238 139.793,728.904 142.5,727.5C 145.086,726.52 147.753,726.187 150.5,726.5C 150.5,725.5 150.5,724.5 150.5,723.5C 154.167,723.5 157.833,723.5 161.5,723.5C 161.5,722.5 161.5,721.5 161.5,720.5C 178.507,719.981 195.507,719.314 212.5,718.5C 212.5,717.5 212.5,716.5 212.5,715.5C 220.5,715.5 228.5,715.5 236.5,715.5C 236.5,714.5 236.5,713.5 236.5,712.5C 242.833,712.5 249.167,712.5 255.5,712.5C 255.5,699.5 255.5,686.5 255.5,673.5C 253.833,673.5 252.167,673.5 250.5,673.5C 250.5,672.5 250.5,671.5 250.5,670.5C 248.5,670.5 246.5,670.5 244.5,670.5C 243.494,666.47 240.827,664.803 236.5,665.5C 236.5,663.5 236.5,661.5 236.5,659.5C 234.833,659.5 233.167,659.5 231.5,659.5C 231.5,658.5 231.5,657.5 231.5,656.5C 229.5,655.833 227.5,655.167 225.5,654.5C 224.36,651.975 223.693,649.308 223.5,646.5C 222.5,646.5 221.5,646.5 220.5,646.5C 220.5,645.5 220.5,644.5 220.5,643.5C 219.5,643.5 218.5,643.5 217.5,643.5C 217.167,640.5 215.5,638.833 212.5,638.5C 212.5,637.5 212.5,636.5 212.5,635.5C 211.5,635.5 210.5,635.5 209.5,635.5C 209.5,633.5 209.5,631.5 209.5,629.5C 208.5,629.5 207.5,629.5 206.5,629.5C 205.833,626.167 205.167,622.833 204.5,619.5C 203.5,619.5 202.5,619.5 201.5,619.5C 201.5,617.5 201.5,615.5 201.5,613.5C 200.5,613.5 199.5,613.5 198.5,613.5C 197.357,609.256 196.69,604.923 196.5,600.5C 195.5,600.5 194.5,600.5 193.5,600.5C 193.5,596.833 193.5,593.167 193.5,589.5C 192.5,589.5 191.5,589.5 190.5,589.5C 189.814,578.678 189.147,567.845 188.5,557C 189.342,545.169 190.009,533.335 190.5,521.5C 191.5,521.5 192.5,521.5 193.5,521.5C 193.5,517.833 193.5,514.167 193.5,510.5C 194.5,510.5 195.5,510.5 196.5,510.5C 197.533,502.944 199.199,495.611 201.5,488.5C 202.5,488.5 203.5,488.5 204.5,488.5C 204.693,485.692 205.36,483.025 206.5,480.5C 207.5,480.5 208.5,480.5 209.5,480.5C 209.5,478.833 209.5,477.167 209.5,475.5C 210.5,475.5 211.5,475.5 212.5,475.5C 212.5,474.5 212.5,473.5 212.5,472.5C 213.5,472.5 214.5,472.5 215.5,472.5C 216.64,469.975 217.307,467.308 217.5,464.5C 218.5,464.5 219.5,464.5 220.5,464.5C 220.5,463.5 220.5,462.5 220.5,461.5C 223.5,461.167 225.167,459.5 225.5,456.5C 226.5,456.5 227.5,456.5 228.5,456.5C 228.5,455.5 228.5,454.5 228.5,453.5C 229.5,453.5 230.5,453.5 231.5,453.5C 231.833,450.5 233.5,448.833 236.5,448.5C 236.5,447.5 236.5,446.5 236.5,445.5C 238.5,445.5 240.5,445.5 242.5,445.5C 243.506,441.47 246.173,439.803 250.5,440.5C 250.5,439.5 250.5,438.5 250.5,437.5C 252.167,437.5 253.833,437.5 255.5,437.5C 255.5,436.5 255.5,435.5 255.5,434.5C 258.025,433.36 260.692,432.693 263.5,432.5C 263.5,431.5 263.5,430.5 263.5,429.5C 265.5,429.5 267.5,429.5 269.5,429.5C 269.5,428.5 269.5,427.5 269.5,426.5C 272.833,426.5 276.167,426.5 279.5,426.5C 279.5,425.5 279.5,424.5 279.5,423.5C 284.619,424.103 289.285,423.436 293.5,421.5 Z M 253.5,503.5 C 256.833,504.167 260.167,504.833 263.5,505.5C 263.5,506.5 263.5,507.5 263.5,508.5C 264.5,508.5 265.5,508.5 266.5,508.5C 266.5,512.833 266.5,517.167 266.5,521.5C 263.983,522.01 261.983,523.344 260.5,525.5C 257.232,526.487 253.898,526.82 250.5,526.5C 250.5,525.5 250.5,524.5 250.5,523.5C 247.692,523.307 245.025,522.64 242.5,521.5C 242.5,518.167 242.5,514.833 242.5,511.5C 243.5,511.5 244.5,511.5 245.5,511.5C 245.5,509.5 245.5,507.5 245.5,505.5C 248.698,506.036 251.365,505.369 253.5,503.5 Z M 358.5,503.5 C 361.833,504.167 365.167,504.833 368.5,505.5C 368.5,506.5 368.5,507.5 368.5,508.5C 369.5,508.5 370.5,508.5 371.5,508.5C 371.5,509.5 371.5,510.5 371.5,511.5C 372.5,511.5 373.5,511.5 374.5,511.5C 374.5,513.833 374.5,516.167 374.5,518.5C 373.5,518.5 372.5,518.5 371.5,518.5C 371.5,520.167 371.5,521.833 371.5,523.5C 369.833,523.5 368.167,523.5 366.5,523.5C 366.5,524.5 366.5,525.5 366.5,526.5C 363.167,526.5 359.833,526.5 356.5,526.5C 356.5,525.5 356.5,524.5 356.5,523.5C 354.5,523.5 352.5,523.5 350.5,523.5C 350.927,520.212 350.26,517.212 348.5,514.5C 350.104,512.821 350.771,510.821 350.5,508.5C 351.5,508.5 352.5,508.5 353.5,508.5C 353.5,507.5 353.5,506.5 353.5,505.5C 355.781,505.923 357.448,505.256 358.5,503.5 Z M 261.5,581.5 C 265.833,581.5 270.167,581.5 274.5,581.5C 274.5,585.833 274.5,590.167 274.5,594.5C 275.5,594.5 276.5,594.5 277.5,594.5C 278.64,597.025 279.307,599.692 279.5,602.5C 280.5,602.5 281.5,602.5 282.5,602.5C 282.5,603.5 282.5,604.5 282.5,605.5C 283.5,605.5 284.5,605.5 285.5,605.5C 285.826,607.661 286.826,609.494 288.5,611C 292.689,612.631 297.022,613.464 301.5,613.5C 301.5,614.5 301.5,615.5 301.5,616.5C 306.167,616.5 310.833,616.5 315.5,616.5C 315.5,615.5 315.5,614.5 315.5,613.5C 320.222,613.152 324.889,612.485 329.5,611.5C 330.167,609.5 330.833,607.5 331.5,605.5C 332.5,605.5 333.5,605.5 334.5,605.5C 334.5,604.5 334.5,603.5 334.5,602.5C 335.5,602.5 336.5,602.5 337.5,602.5C 337.5,599.833 337.5,597.167 337.5,594.5C 339.143,594.52 340.476,593.853 341.5,592.5C 342.489,588.893 342.823,585.226 342.5,581.5C 345.833,581.5 349.167,581.5 352.5,581.5C 352.5,585.833 352.5,590.167 352.5,594.5C 351.5,594.5 350.5,594.5 349.5,594.5C 349.31,598.923 348.643,603.256 347.5,607.5C 346.5,607.5 345.5,607.5 344.5,607.5C 344.5,608.5 344.5,609.5 344.5,610.5C 341.5,610.833 339.833,612.5 339.5,615.5C 337.5,615.5 335.5,615.5 333.5,615.5C 332.833,617.5 332.167,619.5 331.5,621.5C 326.889,622.485 322.222,623.152 317.5,623.5C 317.5,624.5 317.5,625.5 317.5,626.5C 311.5,626.5 305.5,626.5 299.5,626.5C 299.5,625.5 299.5,624.5 299.5,623.5C 295.077,623.31 290.744,622.643 286.5,621.5C 286.5,620.5 286.5,619.5 286.5,618.5C 284.5,618.5 282.5,618.5 280.5,618.5C 280.5,617.5 280.5,616.5 280.5,615.5C 279.5,615.5 278.5,615.5 277.5,615.5C 277.167,612.5 275.5,610.833 272.5,610.5C 272.5,609.5 272.5,608.5 272.5,607.5C 271.5,607.5 270.5,607.5 269.5,607.5C 268.627,603.879 267.961,600.212 267.5,596.5C 266.5,596.5 265.5,596.5 264.5,596.5C 264.5,592.167 264.5,587.833 264.5,583.5C 262.821,583.715 261.821,583.048 261.5,581.5 Z"/></g>
<g><path style="opacity:0.942" fill="#575757" d="M 441.5,421.5 C 449.86,421.169 458.193,421.502 466.5,422.5C 472.565,422.981 478.231,424.315 483.5,426.5C 483.5,427.5 483.5,428.5 483.5,429.5C 485.167,429.5 486.833,429.5 488.5,429.5C 488.5,430.5 488.5,431.5 488.5,432.5C 491.025,433.64 493.692,434.307 496.5,434.5C 496.5,435.5 496.5,436.5 496.5,437.5C 497.5,437.5 498.5,437.5 499.5,437.5C 499.5,438.5 499.5,439.5 499.5,440.5C 502.5,440.833 504.167,442.5 504.5,445.5C 505.5,445.5 506.5,445.5 507.5,445.5C 507.285,448.966 508.618,451.633 511.5,453.5C 512.466,455.396 512.799,457.396 512.5,459.5C 513.5,459.5 514.5,459.5 515.5,459.5C 515.5,461.167 515.5,462.833 515.5,464.5C 516.5,464.5 517.5,464.5 518.5,464.5C 519.164,473.154 519.83,481.821 520.5,490.5C 520.087,497.545 519.42,504.545 518.5,511.5C 517.5,511.5 516.5,511.5 515.5,511.5C 515.5,514.167 515.5,516.833 515.5,519.5C 514.5,519.5 513.5,519.5 512.5,519.5C 512.307,522.308 511.64,524.975 510.5,527.5C 509.5,527.5 508.5,527.5 507.5,527.5C 507.5,528.5 507.5,529.5 507.5,530.5C 506.5,530.5 505.5,530.5 504.5,530.5C 504.203,535.773 501.536,539.107 496.5,540.5C 496.5,541.5 496.5,542.5 496.5,543.5C 494.833,543.5 493.167,543.5 491.5,543.5C 491.5,544.5 491.5,545.5 491.5,546.5C 489.5,546.5 487.5,546.5 485.5,546.5C 485.5,547.5 485.5,548.5 485.5,549.5C 482.167,550.167 478.833,550.833 475.5,551.5C 475.5,552.5 475.5,553.5 475.5,554.5C 469.833,554.5 464.167,554.5 458.5,554.5C 458.5,555.5 458.5,556.5 458.5,557.5C 456.5,557.5 454.5,557.5 452.5,557.5C 452.742,546.921 451.742,536.588 449.5,526.5C 455.167,526.5 460.833,526.5 466.5,526.5C 466.5,525.5 466.5,524.5 466.5,523.5C 469.833,522.833 473.167,522.167 476.5,521.5C 476.5,520.5 476.5,519.5 476.5,518.5C 477.5,518.5 478.5,518.5 479.5,518.5C 479.5,517.5 479.5,516.5 479.5,515.5C 481.143,515.52 482.476,514.853 483.5,513.5C 485.019,509.808 486.352,506.141 487.5,502.5C 488.5,502.5 489.5,502.5 490.5,502.5C 490.5,493.833 490.5,485.167 490.5,476.5C 489.5,476.5 488.5,476.5 487.5,476.5C 487.5,474.5 487.5,472.5 487.5,470.5C 486.5,470.5 485.5,470.5 484.5,470.5C 484.307,467.692 483.64,465.025 482.5,462.5C 481.5,462.5 480.5,462.5 479.5,462.5C 479.5,461.5 479.5,460.5 479.5,459.5C 476.5,459.167 474.833,457.5 474.5,454.5C 472.5,454.5 470.5,454.5 468.5,454.5C 468.5,453.5 468.5,452.5 468.5,451.5C 458.833,451.5 449.167,451.5 439.5,451.5C 439.5,452.5 439.5,453.5 439.5,454.5C 437.833,454.5 436.167,454.5 434.5,454.5C 434.5,455.5 434.5,456.5 434.5,457.5C 431.692,457.693 429.025,458.36 426.5,459.5C 426.5,460.5 426.5,461.5 426.5,462.5C 425.167,462.5 423.833,462.5 422.5,462.5C 421.36,459.975 420.693,457.308 420.5,454.5C 419.5,454.5 418.5,454.5 417.5,454.5C 417.5,453.5 417.5,452.5 417.5,451.5C 414.5,451.167 412.833,449.5 412.5,446.5C 411.5,446.5 410.5,446.5 409.5,446.5C 409.5,443.5 409.5,440.5 409.5,437.5C 410.5,437.5 411.5,437.5 412.5,437.5C 413.506,433.47 416.173,431.803 420.5,432.5C 421.167,430.5 421.833,428.5 422.5,426.5C 425.998,427.045 428.998,426.212 431.5,424C 435.311,424.083 438.645,423.25 441.5,421.5 Z"/></g>
<g><path style="opacity:0.897" fill="#575757" d="M 447.5,475.5 C 452.214,475.173 456.88,475.507 461.5,476.5C 465.257,478.763 466.924,482.097 466.5,486.5C 467.5,486.5 468.5,486.5 469.5,486.5C 469.5,488.5 469.5,490.5 469.5,492.5C 468.5,492.5 467.5,492.5 466.5,492.5C 466.307,495.308 465.64,497.975 464.5,500.5C 463.5,500.5 462.5,500.5 461.5,500.5C 461.5,501.5 461.5,502.5 461.5,503.5C 455.833,503.5 450.167,503.5 444.5,503.5C 444.5,501.5 444.5,499.5 444.5,497.5C 442.857,497.52 441.524,496.853 440.5,495.5C 438.992,489.883 439.659,484.55 442.5,479.5C 444.586,478.511 446.253,477.178 447.5,475.5 Z"/></g>
<g><path style="opacity:0.974" fill="#575757" d="M 760.5,594.5 C 776.847,594.167 793.18,594.501 809.5,595.5C 811.851,596.012 813.851,597.012 815.5,598.5C 818.086,599.48 820.753,599.813 823.5,599.5C 823.5,600.5 823.5,601.5 823.5,602.5C 827.744,603.643 832.077,604.31 836.5,604.5C 836.5,605.5 836.5,606.5 836.5,607.5C 837.5,607.5 838.5,607.5 839.5,607.5C 839.5,608.5 839.5,609.5 839.5,610.5C 842.308,610.693 844.975,611.36 847.5,612.5C 847.5,613.5 847.5,614.5 847.5,615.5C 849.167,615.5 850.833,615.5 852.5,615.5C 852.5,616.5 852.5,617.5 852.5,618.5C 853.5,618.5 854.5,618.5 855.5,618.5C 855.5,619.5 855.5,620.5 855.5,621.5C 857.5,622.167 859.5,622.833 861.5,623.5C 862.167,625.5 862.833,627.5 863.5,629.5C 865.5,630.167 867.5,630.833 869.5,631.5C 868.803,635.827 870.47,638.494 874.5,639.5C 874.5,640.5 874.5,641.5 874.5,642.5C 875.5,642.5 876.5,642.5 877.5,642.5C 877.961,646.212 878.627,649.879 879.5,653.5C 880.5,653.5 881.5,653.5 882.5,653.5C 882.151,656.045 882.984,658.045 885,659.5C 885.498,662.817 885.665,666.15 885.5,669.5C 886.5,669.5 887.5,669.5 888.5,669.5C 889.456,679.632 890.122,689.799 890.5,700C 890.054,710.86 889.388,721.693 888.5,732.5C 887.5,732.5 886.5,732.5 885.5,732.5C 885.5,735.167 885.5,737.833 885.5,740.5C 884.5,740.5 883.5,740.5 882.5,740.5C 882.5,742.5 882.5,744.5 882.5,746.5C 881.5,746.5 880.5,746.5 879.5,746.5C 878.833,749.833 878.167,753.167 877.5,756.5C 876.5,756.5 875.5,756.5 874.5,756.5C 874.5,758.5 874.5,760.5 874.5,762.5C 871.5,762.833 869.833,764.5 869.5,767.5C 868.5,767.5 867.5,767.5 866.5,767.5C 866.5,769.5 866.5,771.5 866.5,773.5C 863.692,773.693 861.025,774.36 858.5,775.5C 858.5,776.5 858.5,777.5 858.5,778.5C 857.5,778.5 856.5,778.5 855.5,778.5C 855.5,779.5 855.5,780.5 855.5,781.5C 852.5,781.833 850.833,783.5 850.5,786.5C 848.5,786.5 846.5,786.5 844.5,786.5C 844.5,788.167 844.5,789.833 844.5,791.5C 842.833,791.5 841.167,791.5 839.5,791.5C 839.5,792.5 839.5,793.5 839.5,794.5C 837.833,794.5 836.167,794.5 834.5,794.5C 834.5,795.5 834.5,796.5 834.5,797.5C 827.31,799.672 819.977,801.339 812.5,802.5C 812.5,803.5 812.5,804.5 812.5,805.5C 806.167,805.5 799.833,805.5 793.5,805.5C 793.5,806.5 793.5,807.5 793.5,808.5C 787.833,808.5 782.167,808.5 776.5,808.5C 776.5,807.5 776.5,806.5 776.5,805.5C 770.167,805.5 763.833,805.5 757.5,805.5C 757.5,804.5 757.5,803.5 757.5,802.5C 752.167,801.833 746.833,801.167 741.5,800.5C 741.5,799.5 741.5,798.5 741.5,797.5C 739.833,797.5 738.167,797.5 736.5,797.5C 736.5,796.5 736.5,795.5 736.5,794.5C 734.5,794.5 732.5,794.5 730.5,794.5C 730.5,793.5 730.5,792.5 730.5,791.5C 727.692,791.307 725.025,790.64 722.5,789.5C 722.5,788.5 722.5,787.5 722.5,786.5C 721.5,786.5 720.5,786.5 719.5,786.5C 719.167,783.5 717.5,781.833 714.5,781.5C 714.5,780.5 714.5,779.5 714.5,778.5C 713.5,778.5 712.5,778.5 711.5,778.5C 711.5,777.5 711.5,776.5 711.5,775.5C 708.692,775.307 706.025,774.64 703.5,773.5C 703.5,772.5 703.5,771.5 703.5,770.5C 702.5,770.5 701.5,770.5 700.5,770.5C 699.36,767.975 698.693,765.308 698.5,762.5C 697.5,762.5 696.5,762.5 695.5,762.5C 695.5,761.5 695.5,760.5 695.5,759.5C 694.5,759.5 693.5,759.5 692.5,759.5C 691.627,755.879 690.961,752.212 690.5,748.5C 689.5,748.5 688.5,748.5 687.5,748.5C 687.5,745.833 687.5,743.167 687.5,740.5C 686.5,740.5 685.5,740.5 684.5,740.5C 683.127,735.277 682.461,729.944 682.5,724.5C 681.5,724.5 680.5,724.5 679.5,724.5C 679.5,721.833 679.5,719.167 679.5,716.5C 678.5,716.5 677.5,716.5 676.5,716.5C 676.334,706.161 676.5,695.828 677,685.5C 678.936,683.192 679.769,680.525 679.5,677.5C 680.5,677.5 681.5,677.5 682.5,677.5C 682.812,671.121 683.479,664.788 684.5,658.5C 685.5,658.5 686.5,658.5 687.5,658.5C 687.5,656.833 687.5,655.167 687.5,653.5C 688.5,653.5 689.5,653.5 690.5,653.5C 691.373,649.879 692.039,646.212 692.5,642.5C 693.5,642.5 694.5,642.5 695.5,642.5C 695.5,641.5 695.5,640.5 695.5,639.5C 696.5,639.5 697.5,639.5 698.5,639.5C 699.928,634.993 701.595,630.66 703.5,626.5C 704.5,626.5 705.5,626.5 706.5,626.5C 706.5,625.5 706.5,624.5 706.5,623.5C 709.308,623.307 711.975,622.64 714.5,621.5C 714.5,620.5 714.5,619.5 714.5,618.5C 715.5,618.5 716.5,618.5 717.5,618.5C 718.167,616.5 718.833,614.5 719.5,612.5C 723.827,613.197 726.494,611.53 727.5,607.5C 729.5,607.5 731.5,607.5 733.5,607.5C 733.5,606.5 733.5,605.5 733.5,604.5C 737.744,603.357 742.077,602.69 746.5,602.5C 746.5,601.5 746.5,600.5 746.5,599.5C 749.167,599.5 751.833,599.5 754.5,599.5C 754.5,598.5 754.5,597.5 754.5,596.5C 757.082,596.975 759.082,596.308 760.5,594.5 Z M 771.5,635.5 C 779.5,635.5 787.5,635.5 795.5,635.5C 795.5,652.5 795.5,669.5 795.5,686.5C 813.5,686.5 831.5,686.5 849.5,686.5C 849.5,695.167 849.5,703.833 849.5,712.5C 831.5,712.5 813.5,712.5 795.5,712.5C 795.5,730.5 795.5,748.5 795.5,766.5C 787.5,766.5 779.5,766.5 771.5,766.5C 771.5,748.5 771.5,730.5 771.5,712.5C 754.5,712.5 737.5,712.5 720.5,712.5C 720.5,703.833 720.5,695.167 720.5,686.5C 737.5,686.5 754.5,686.5 771.5,686.5C 771.5,669.5 771.5,652.5 771.5,635.5 Z"/></g>
</svg>
