<?xml version="1.0" encoding="UTF-8"?>
<!DOCTYPE svg PUBLIC "-//W3C//DTD SVG 1.1//EN" "http://www.w3.org/Graphics/SVG/1.1/DTD/svg11.dtd">
<svg xmlns="http://www.w3.org/2000/svg" version="1.1" width="684px" height="680px" style="shape-rendering:geometricPrecision; text-rendering:geometricPrecision; image-rendering:optimizeQuality; fill-rule:evenodd; clip-rule:evenodd" xmlns:xlink="http://www.w3.org/1999/xlink">
<g><path style="opacity:0.99" fill="#575757" d="M 196.5,8.5 C 202.833,8.5 209.167,8.5 215.5,8.5C 215.5,9.5 215.5,10.5 215.5,11.5C 226.62,11.1776 237.62,12.1776 248.5,14.5C 261.463,19.9337 274.797,24.6004 288.5,28.5C 288.48,30.143 289.147,31.4763 290.5,32.5C 292.833,33.1667 295.167,33.8333 297.5,34.5C 299.156,36.3294 301.156,37.6628 303.5,38.5C 304.853,39.5237 305.52,40.857 305.5,42.5C 309.411,44.7955 313.411,47.1289 317.5,49.5C 318.853,50.5237 319.52,51.857 319.5,53.5C 320.978,53.238 322.311,53.5713 323.5,54.5C 327.833,57.5 331.5,61.1667 334.5,65.5C 335.325,66.3857 336.325,66.719 337.5,66.5C 338.35,71.4391 341.017,75.1058 345.5,77.5C 349.983,75.1058 352.65,71.4391 353.5,66.5C 354.675,66.719 355.675,66.3857 356.5,65.5C 359.5,61.1667 363.167,57.5 367.5,54.5C 368.689,53.5713 370.022,53.238 371.5,53.5C 373.304,49.7222 376.304,47.0555 380.5,45.5C 385.875,39.1477 392.542,34.8144 400.5,32.5C 401.853,31.4763 402.52,30.143 402.5,28.5C 416.203,24.6004 429.537,19.9337 442.5,14.5C 453.429,12.6019 464.429,11.2686 475.5,10.5C 475.709,9.91395 476.043,9.41395 476.5,9C 482.491,8.50051 488.491,8.33385 494.5,8.5C 494.5,9.5 494.5,10.5 494.5,11.5C 505.597,11.3763 516.597,12.3763 527.5,14.5C 533.247,17.195 539.247,18.8617 545.5,19.5C 545.5,20.5 545.5,21.5 545.5,22.5C 547.924,22.1924 550.257,22.5258 552.5,23.5C 556.649,25.7603 560.982,27.4269 565.5,28.5C 565.5,29.5 565.5,30.5 565.5,31.5C 575.038,33.6398 583.038,38.3065 589.5,45.5C 591.684,47.0922 594.018,48.4255 596.5,49.5C 597.853,50.5237 598.52,51.857 598.5,53.5C 601.928,55.9254 605.594,57.9254 609.5,59.5C 609.5,60.5 609.5,61.5 609.5,62.5C 610.675,62.281 611.675,62.6143 612.5,63.5C 614.575,66.8809 616.575,70.2142 618.5,73.5C 621.246,73.9276 622.913,75.5943 623.5,78.5C 624.689,79.4287 626.022,79.762 627.5,79.5C 627.011,83.487 628.678,85.8203 632.5,86.5C 635.05,91.6056 637.05,96.939 638.5,102.5C 639.5,102.5 640.5,102.5 641.5,102.5C 644.397,109.742 647.063,117.076 649.5,124.5C 650.5,124.5 651.5,124.5 652.5,124.5C 655.237,136.05 657.57,147.717 659.5,159.5C 660.833,178.5 660.833,197.5 659.5,216.5C 657.297,227.632 654.963,238.632 652.5,249.5C 651.5,249.5 650.5,249.5 649.5,249.5C 647.379,256.195 645.045,262.862 642.5,269.5C 641.476,270.853 640.143,271.52 638.5,271.5C 636.96,277.015 634.96,282.349 632.5,287.5C 631.5,287.5 630.5,287.5 629.5,287.5C 629.762,288.978 629.429,290.311 628.5,291.5C 624.833,296.5 620.5,300.833 615.5,304.5C 614.833,306.167 614.167,307.833 613.5,309.5C 536.5,386.167 459.5,462.833 382.5,539.5C 378.273,546.694 372.607,552.361 365.5,556.5C 362.833,559.5 360.167,562.5 357.5,565.5C 356.675,566.386 355.675,566.719 354.5,566.5C 353.659,571.927 350.659,575.594 345.5,577.5C 340.341,575.594 337.341,571.927 336.5,566.5C 335.325,566.719 334.325,566.386 333.5,565.5C 329.395,559.393 324.062,554.726 317.5,551.5C 314.115,547.783 311.115,543.783 308.5,539.5C 302.584,535.42 297.918,530.253 294.5,524C 297.331,519.121 299.665,513.954 301.5,508.5C 302.474,506.257 302.808,503.924 302.5,501.5C 303.5,501.5 304.5,501.5 305.5,501.5C 306.833,493.167 308.167,484.833 309.5,476.5C 322.553,476.405 335.22,474.072 347.5,469.5C 352.761,465.873 357.428,461.54 361.5,456.5C 364.557,453.777 367.89,451.444 371.5,449.5C 373.104,447.821 373.771,445.821 373.5,443.5C 375.143,443.52 376.476,442.853 377.5,441.5C 378.936,435.96 380.936,430.626 383.5,425.5C 384.48,422.914 384.813,420.247 384.5,417.5C 385.5,417.5 386.5,417.5 387.5,417.5C 387.5,407.167 387.5,396.833 387.5,386.5C 386.5,386.5 385.5,386.5 384.5,386.5C 384.817,383.428 384.484,380.428 383.5,377.5C 381.696,371.486 379.362,365.819 376.5,360.5C 375.5,360.5 374.5,360.5 373.5,360.5C 373.785,358.712 373.452,357.045 372.5,355.5C 369.336,353.02 367.002,350.02 365.5,346.5C 374.682,345.985 383.682,346.985 392.5,349.5C 395.99,352.307 398.657,355.641 400.5,359.5C 401.167,382.5 401.833,405.5 402.5,428.5C 403.5,429.5 404.5,430.5 405.5,431.5C 424.594,433.061 443.594,432.728 462.5,430.5C 462.148,427.927 462.648,425.594 464,423.5C 464.833,400.16 464.666,376.826 463.5,353.5C 462.324,344.378 460.657,335.378 458.5,326.5C 457.5,326.5 456.5,326.5 455.5,326.5C 453.892,319.085 449.892,313.419 443.5,309.5C 441.826,303.826 438.159,300.159 432.5,298.5C 431.646,297.052 430.646,295.719 429.5,294.5C 422.314,291.548 414.981,289.215 407.5,287.5C 407.5,286.5 407.5,285.5 407.5,284.5C 404.5,284.5 401.5,284.5 398.5,284.5C 398.833,255.826 398.5,227.159 397.5,198.5C 394.745,195.873 392.412,192.873 390.5,189.5C 389.548,187.955 389.215,186.288 389.5,184.5C 385.336,183.506 381.669,181.506 378.5,178.5C 380.159,177.183 381.326,175.517 382,173.5C 382.909,170.487 383.742,167.487 384.5,164.5C 385.5,164.5 386.5,164.5 387.5,164.5C 387.5,156.5 387.5,148.5 387.5,140.5C 386.5,140.5 385.5,140.5 384.5,140.5C 384.808,138.076 384.474,135.743 383.5,133.5C 381.094,129.785 378.761,126.118 376.5,122.5C 375.5,122.5 374.5,122.5 373.5,122.5C 373.5,121.167 373.5,119.833 373.5,118.5C 370.833,117.833 368.167,117.167 365.5,116.5C 365.5,115.5 365.5,114.5 365.5,113.5C 358.967,111.636 352.301,110.302 345.5,109.5C 338.699,110.302 332.033,111.636 325.5,113.5C 325.5,114.5 325.5,115.5 325.5,116.5C 322.833,117.167 320.167,117.833 317.5,118.5C 317.5,119.833 317.5,121.167 317.5,122.5C 316.5,122.5 315.5,122.5 314.5,122.5C 313.679,125.339 312.013,127.672 309.5,129.5C 308.571,130.689 308.238,132.022 308.5,133.5C 307.5,133.5 306.5,133.5 305.5,133.5C 304.559,139.78 303.893,146.114 303.5,152.5C 303.729,157.935 304.395,163.268 305.5,168.5C 306.5,168.5 307.5,168.5 308.5,168.5C 308.189,172.246 309.189,175.58 311.5,178.5C 308.915,181.78 305.581,183.78 301.5,184.5C 301.785,186.288 301.452,187.955 300.5,189.5C 298.524,191.287 297.191,193.454 296.5,196C 267.828,196.167 239.161,196.667 210.5,197.5C 209.5,198.5 208.5,199.5 207.5,200.5C 206.167,218.833 206.167,237.167 207.5,255.5C 208.5,256.5 209.5,257.5 210.5,258.5C 223.149,259.499 235.816,259.832 248.5,259.5C 248.5,286.5 248.5,313.5 248.5,340.5C 244.427,340.192 240.427,339.525 236.5,338.5C 236.5,337.5 236.5,336.5 236.5,335.5C 233.63,335.752 231.297,334.752 229.5,332.5C 217.357,329.395 205.19,327.395 193,326.5C 187.167,326.833 181.333,327.167 175.5,327.5C 175.291,328.086 174.957,328.586 174.5,329C 165.412,330.102 156.745,332.268 148.5,335.5C 148.5,336.5 148.5,337.5 148.5,338.5C 141.587,340.626 134.92,343.292 128.5,346.5C 128.52,348.143 127.853,349.476 126.5,350.5C 123.833,351.833 121.167,351.833 118.5,350.5C 104.833,336.833 91.1667,323.167 77.5,309.5C 75.9889,304.652 72.9889,300.985 68.5,298.5C 64.4094,294.087 60.7427,289.42 57.5,284.5C 55.2397,280.351 53.5731,276.018 52.5,271.5C 50.857,271.52 49.5237,270.853 48.5,269.5C 45.9546,262.862 43.6212,256.195 41.5,249.5C 40.5,249.5 39.5,249.5 38.5,249.5C 36.0355,238.628 33.7022,227.628 31.5,216.5C 30.1667,197.5 30.1667,178.5 31.5,159.5C 33.4296,147.717 35.7629,136.05 38.5,124.5C 39.5,124.5 40.5,124.5 41.5,124.5C 43.9367,117.076 46.6034,109.742 49.5,102.5C 50.5,102.5 51.5,102.5 52.5,102.5C 53.9495,96.939 55.9495,91.6056 58.5,86.5C 62.322,85.8203 63.9886,83.487 63.5,79.5C 64.8333,79.5 66.1667,79.5 67.5,79.5C 67.3765,75.9601 69.0432,73.9601 72.5,73.5C 74.4253,70.2142 76.4253,66.8809 78.5,63.5C 79.325,62.6143 80.325,62.281 81.5,62.5C 81.281,61.325 81.6143,60.325 82.5,59.5C 85.8809,57.4253 89.2142,55.4253 92.5,53.5C 92.4802,51.857 93.1468,50.5237 94.5,49.5C 100.234,46.9291 104.901,43.0957 108.5,38C 113.992,35.2492 119.658,33.0825 125.5,31.5C 125.5,30.5 125.5,29.5 125.5,28.5C 130.018,27.4269 134.351,25.7603 138.5,23.5C 140.743,22.5258 143.076,22.1924 145.5,22.5C 145.5,21.5 145.5,20.5 145.5,19.5C 151.753,18.8617 157.753,17.195 163.5,14.5C 174.403,12.3763 185.403,11.3763 196.5,11.5C 196.5,10.5 196.5,9.5 196.5,8.5 Z"/></g>
<g><path style="opacity:0.93" fill="#575757" d="M 342.5,128.5 C 347.307,129.893 352.307,130.56 357.5,130.5C 359.002,134.02 361.336,137.02 364.5,139.5C 365.452,141.045 365.785,142.712 365.5,144.5C 366.5,144.5 367.5,144.5 368.5,144.5C 368.5,149.167 368.5,153.833 368.5,158.5C 367.5,158.5 366.5,158.5 365.5,158.5C 364.539,167.461 359.539,172.461 350.5,173.5C 350.5,174.5 350.5,175.5 350.5,176.5C 347.167,176.5 343.833,176.5 340.5,176.5C 340.5,175.5 340.5,174.5 340.5,173.5C 331.461,172.461 326.461,167.461 325.5,158.5C 324.5,158.5 323.5,158.5 322.5,158.5C 322.5,153.833 322.5,149.167 322.5,144.5C 323.5,144.5 324.5,144.5 325.5,144.5C 325.215,142.712 325.548,141.045 326.5,139.5C 329.35,136.818 332.016,133.984 334.5,131C 336.833,130.667 339.167,130.333 341.5,130C 342.056,129.617 342.389,129.117 342.5,128.5 Z"/></g>
<g><path style="opacity:0.967" fill="#575757" d="M 318.5,195.5 C 336.512,195.167 354.512,195.5 372.5,196.5C 375.395,198.407 376.728,201.074 376.5,204.5C 377.5,204.5 378.5,204.5 379.5,204.5C 379.167,235.507 379.5,266.507 380.5,297.5C 381.5,298.5 382.5,299.5 383.5,300.5C 390.699,302.556 398.032,303.556 405.5,303.5C 405.5,304.5 405.5,305.5 405.5,306.5C 411.672,308.235 417.672,310.568 423.5,313.5C 424.853,314.524 425.52,315.857 425.5,317.5C 432.182,320.196 435.849,325.196 436.5,332.5C 437.5,332.5 438.5,332.5 439.5,332.5C 440.081,336.247 441.081,339.914 442.5,343.5C 443.5,366.824 443.833,390.157 443.5,413.5C 435.833,413.5 428.167,413.5 420.5,413.5C 420.833,395.821 420.5,378.154 419.5,360.5C 418.422,355.818 417.422,351.151 416.5,346.5C 415.5,346.5 414.5,346.5 413.5,346.5C 411.925,342.594 409.925,338.928 407.5,335.5C 405.833,335.5 404.167,335.5 402.5,335.5C 402.5,334.167 402.5,332.833 402.5,331.5C 398.952,330.298 395.285,329.631 391.5,329.5C 391.5,328.5 391.5,327.5 391.5,326.5C 364.833,326.5 338.167,326.5 311.5,326.5C 310.889,284.09 311.556,241.757 313.5,199.5C 316.069,199.262 317.735,197.929 318.5,195.5 Z"/></g>
<g><path style="opacity:0.957" fill="#575757" d="M 225.5,215.5 C 247.833,215.5 270.167,215.5 292.5,215.5C 292.5,253.5 292.5,291.5 292.5,329.5C 287.189,330.824 282.189,332.824 277.5,335.5C 277.5,336.5 277.5,337.5 277.5,338.5C 274.167,339.167 270.833,339.833 267.5,340.5C 267.833,308.493 267.5,276.493 266.5,244.5C 265.281,243.354 263.948,242.354 262.5,241.5C 250.185,240.501 237.851,240.168 225.5,240.5C 225.5,232.167 225.5,223.833 225.5,215.5 Z"/></g>
<g><path style="opacity:0.977" fill="#575757" d="M 180.5,346.5 C 199.145,345.36 217.145,348.193 234.5,355C 237.65,358.748 241.65,361.248 246.5,362.5C 249.168,366.674 252.835,369.674 257.5,371.5C 259.785,373.595 261.785,375.928 263.5,378.5C 264.325,379.386 265.325,379.719 266.5,379.5C 266.238,380.978 266.571,382.311 267.5,383.5C 270.112,386.084 272.112,389.084 273.5,392.5C 274.524,393.853 275.857,394.52 277.5,394.5C 279.97,401.012 281.97,407.678 283.5,414.5C 284.5,414.5 285.5,414.5 286.5,414.5C 289.156,428.378 291.156,442.378 292.5,456.5C 291.008,470.272 289.008,483.939 286.5,497.5C 285.5,497.5 284.5,497.5 283.5,497.5C 282.681,503.056 281.014,508.39 278.5,513.5C 277.476,514.853 276.143,515.52 274.5,515.5C 274.703,518.891 273.703,521.891 271.5,524.5C 266.876,529.158 262.209,533.825 257.5,538.5C 256.675,539.386 255.675,539.719 254.5,539.5C 254.033,541.711 253.033,543.711 251.5,545.5C 249.024,546.809 247.024,548.642 245.5,551C 242.898,552.14 240.231,552.973 237.5,553.5C 237.5,564.167 237.5,574.833 237.5,585.5C 249.143,586.497 260.81,587.164 272.5,587.5C 272.5,588.5 272.5,589.5 272.5,590.5C 292.935,590.416 312.935,593.082 332.5,598.5C 332.5,599.5 332.5,600.5 332.5,601.5C 334.288,601.215 335.955,601.548 337.5,602.5C 340.527,605.193 343.193,608.193 345.5,611.5C 346.325,612.386 347.325,612.719 348.5,612.5C 350.902,619.039 352.902,625.706 354.5,632.5C 355.5,632.5 356.5,632.5 357.5,632.5C 359.747,641.245 362.414,649.911 365.5,658.5C 366.5,658.5 367.5,658.5 368.5,658.5C 368.739,660.467 368.406,662.301 367.5,664C 251.167,664.5 134.834,664.667 18.5,664.5C 18.0508,662.023 18.7175,660.023 20.5,658.5C 23.4411,651.321 25.7744,643.988 27.5,636.5C 28.5,636.5 29.5,636.5 30.5,636.5C 32.2141,629.004 34.5474,621.671 37.5,614.5C 43.1961,608.138 49.5295,602.471 56.5,597.5C 61.7627,595.886 67.096,594.553 72.5,593.5C 86.4698,591.957 100.47,590.957 114.5,590.5C 114.5,589.5 114.5,588.5 114.5,587.5C 126.19,587.164 137.857,586.497 149.5,585.5C 149.5,574.833 149.5,564.167 149.5,553.5C 145.053,552.818 141.387,550.818 138.5,547.5C 137.311,546.571 135.978,546.238 134.5,546.5C 134.5,545.167 134.5,543.833 134.5,542.5C 133.167,542.5 131.833,542.5 130.5,542.5C 130.5,541.5 130.5,540.5 130.5,539.5C 129.325,539.719 128.325,539.386 127.5,538.5C 123.315,532.833 118.648,527.499 113.5,522.5C 112.548,520.955 112.215,519.288 112.5,517.5C 111.5,517.5 110.5,517.5 109.5,517.5C 107.984,511.545 105.651,505.878 102.5,500.5C 101.526,498.257 101.192,495.924 101.5,493.5C 100.5,493.5 99.5,493.5 98.5,493.5C 96.8827,481.268 95.5494,469.102 94.5,457C 95.4415,444.442 96.7749,431.942 98.5,419.5C 99.5,419.5 100.5,419.5 101.5,419.5C 102.138,413.247 103.805,407.247 106.5,401.5C 110.815,394.884 115.148,388.217 119.5,381.5C 124.157,376.512 129.157,371.845 134.5,367.5C 135.689,366.571 137.022,366.238 138.5,366.5C 138.48,364.857 139.147,363.524 140.5,362.5C 144.544,360.807 148.544,359.141 152.5,357.5C 152.5,356.5 152.5,355.5 152.5,354.5C 161.907,351.384 171.24,348.718 180.5,346.5 Z M 148.5,413.5 C 157.674,414.605 160.674,419.605 157.5,428.5C 155.892,431.109 153.559,432.442 150.5,432.5C 146.867,431.847 143.534,430.513 140.5,428.5C 140.167,427.167 139.833,425.833 139.5,424.5C 140.426,421.53 141.092,418.53 141.5,415.5C 144.388,416.01 146.721,415.344 148.5,413.5 Z M 235.5,413.5 C 241.556,414.086 245.556,417.253 247.5,423C 246.22,425.36 245.553,427.86 245.5,430.5C 242.47,430.908 239.47,431.574 236.5,432.5C 233.802,431.809 231.135,431.142 228.5,430.5C 228.945,427.635 228.278,425.135 226.5,423C 227.92,421.47 228.92,419.637 229.5,417.5C 231.793,416.348 233.793,415.015 235.5,413.5 Z M 155.5,477.5 C 158.833,477.5 162.167,477.5 165.5,477.5C 165.177,481.226 165.511,484.893 166.5,488.5C 168.341,490.512 169.341,492.845 169.5,495.5C 173.013,498.207 176.68,500.874 180.5,503.5C 190.797,507.675 200.797,507.008 210.5,501.5C 211.853,500.476 212.52,499.143 212.5,497.5C 214.143,497.52 215.476,496.853 216.5,495.5C 216.997,492.068 218.33,489.068 220.5,486.5C 221.484,483.572 221.817,480.572 221.5,477.5C 224.167,477.5 226.833,477.5 229.5,477.5C 229.699,485.241 228.033,492.574 224.5,499.5C 221.612,502.419 218.278,504.419 214.5,505.5C 214.5,506.5 214.5,507.5 214.5,508.5C 207.902,511.718 200.902,513.718 193.5,514.5C 185.553,513.371 177.887,511.371 170.5,508.5C 168.833,504.167 165.833,501.167 161.5,499.5C 159.036,492.274 157.036,484.94 155.5,477.5 Z"/></g>
<g><path style="opacity:0.943" fill="#575757" d="M 302.5,346.5 C 316.158,345.369 329.158,347.703 341.5,353.5C 342.853,354.524 343.52,355.857 343.5,357.5C 348.955,358.286 352.621,361.286 354.5,366.5C 355.5,366.5 356.5,366.5 357.5,366.5C 359.908,371.335 362.241,376.335 364.5,381.5C 365.489,385.107 365.823,388.774 365.5,392.5C 366.5,392.5 367.5,392.5 368.5,392.5C 368.666,399.175 368.5,405.842 368,412.5C 367.586,412.957 367.086,413.291 366.5,413.5C 364.9,419.634 362.9,425.634 360.5,431.5C 358.993,433.69 356.993,435.024 354.5,435.5C 352.675,443.316 347.675,447.65 339.5,448.5C 339.5,449.5 339.5,450.5 339.5,451.5C 336.252,451.664 333.252,452.664 330.5,454.5C 324.132,455.454 317.799,456.454 311.5,457.5C 311.782,448.981 311.115,440.647 309.5,432.5C 313.884,432.826 318.217,432.492 322.5,431.5C 325.418,430.13 328.418,429.13 331.5,428.5C 334.207,424.987 336.874,421.32 339.5,417.5C 343.884,405.538 343.218,393.871 337.5,382.5C 336.476,381.147 335.143,380.48 333.5,380.5C 332.228,376.561 329.561,373.894 325.5,372.5C 314.014,370.371 303.014,371.705 292.5,376.5C 291.147,377.524 290.48,378.857 290.5,380.5C 289.5,380.5 288.5,380.5 287.5,380.5C 286.551,378.263 285.884,375.929 285.5,373.5C 280.592,371.751 277.592,368.251 276.5,363C 277.655,360.033 278.989,357.2 280.5,354.5C 287.864,351.641 295.197,348.974 302.5,346.5 Z"/></g>
<g><path style="opacity:0.886" fill="#575757" d="M 307.5,390.5 C 317.574,388.088 323.574,391.921 325.5,402C 324.467,406.095 322.467,409.595 319.5,412.5C 314.88,413.493 310.214,413.827 305.5,413.5C 303.472,409.932 301.805,406.099 300.5,402C 300.833,400.5 301.167,399 301.5,397.5C 303.23,394.782 305.23,392.449 307.5,390.5 Z"/></g>
<g><path style="opacity:0.97" fill="#575757" d="M 564.5,488.5 C 578.183,488.167 591.85,488.501 605.5,489.5C 612.671,492.453 620.004,494.786 627.5,496.5C 627.48,498.143 628.147,499.476 629.5,500.5C 633.346,502.716 637.346,504.383 641.5,505.5C 644.035,510.211 647.535,514.211 652,517.5C 653.77,521.37 656.27,524.703 659.5,527.5C 660.452,529.045 660.785,530.712 660.5,532.5C 661.5,532.5 662.5,532.5 663.5,532.5C 666.765,541.192 668.765,550.192 669.5,559.5C 670.5,559.5 671.5,559.5 672.5,559.5C 672.5,569.833 672.5,580.167 672.5,590.5C 671.5,590.5 670.5,590.5 669.5,590.5C 669.824,594.555 669.491,598.555 668.5,602.5C 666.697,607.5 665.031,612.5 663.5,617.5C 662.5,617.5 661.5,617.5 660.5,617.5C 660.016,622.799 657.683,627.132 653.5,630.5C 652.548,632.045 652.215,633.712 652.5,635.5C 647.331,636.476 643.331,639.309 640.5,644C 638.831,645.669 636.831,646.502 634.5,646.5C 634.5,647.833 634.5,649.167 634.5,650.5C 632.833,650.5 631.167,650.5 629.5,650.5C 629.5,651.5 629.5,652.5 629.5,653.5C 622.272,656.02 614.939,658.353 607.5,660.5C 602.544,661.494 597.544,661.827 592.5,661.5C 592.5,662.5 592.5,663.5 592.5,664.5C 587.833,664.5 583.167,664.5 578.5,664.5C 578.5,663.5 578.5,662.5 578.5,661.5C 573.125,661.828 567.792,661.495 562.5,660.5C 555.061,658.353 547.728,656.02 540.5,653.5C 540.5,652.5 540.5,651.5 540.5,650.5C 535.045,649.714 531.379,646.714 529.5,641.5C 517.876,636.537 510.543,627.871 507.5,615.5C 506.5,615.5 505.5,615.5 504.5,615.5C 501.804,606.7 499.804,597.7 498.5,588.5C 497.5,588.5 496.5,588.5 495.5,588.5C 495.334,580.16 495.5,571.827 496,563.5C 497.549,561.382 498.716,559.049 499.5,556.5C 500.976,549.748 502.642,543.082 504.5,536.5C 505.5,536.5 506.5,536.5 507.5,536.5C 508.595,530.93 510.928,525.93 514.5,521.5C 515.524,520.147 516.857,519.48 518.5,519.5C 518.215,517.712 518.548,516.045 519.5,514.5C 522.881,512.425 526.214,510.425 529.5,508.5C 529.48,506.857 530.147,505.524 531.5,504.5C 534.981,502.279 538.648,500.612 542.5,499.5C 542.5,498.5 542.5,497.5 542.5,496.5C 548.488,494.932 554.488,493.266 560.5,491.5C 562.332,490.943 563.665,489.943 564.5,488.5 Z M 574.5,522.5 C 580.833,522.5 587.167,522.5 593.5,522.5C 593.5,536.5 593.5,550.5 593.5,564.5C 608.167,564.5 622.833,564.5 637.5,564.5C 637.5,571.5 637.5,578.5 637.5,585.5C 622.833,585.5 608.167,585.5 593.5,585.5C 593.5,600.5 593.5,615.5 593.5,630.5C 587.167,630.5 580.833,630.5 574.5,630.5C 574.5,615.5 574.5,600.5 574.5,585.5C 560.5,585.5 546.5,585.5 532.5,585.5C 532.5,578.5 532.5,571.5 532.5,564.5C 546.5,564.5 560.5,564.5 574.5,564.5C 574.5,550.5 574.5,536.5 574.5,522.5 Z"/></g>
</svg>
